<?xml version="1.0" encoding="UTF-8" standalone="no"?>
<!DOCTYPE svg PUBLIC "-//W3C//DTD SVG 1.1//EN"
 "http://www.w3.org/Graphics/SVG/1.1/DTD/svg11.dtd">
<!-- Generated by graphviz version 2.50.0 (0)
 -->
<!-- Title: snakemake_dag Pages: 1 -->
<svg width="337pt" height="260pt"
 viewBox="0.00 0.00 336.50 260.00" xmlns="http://www.w3.org/2000/svg" xmlns:xlink="http://www.w3.org/1999/xlink">
<g id="graph0" class="graph" transform="scale(1 1) rotate(0) translate(4 256)">
<title>snakemake_dag</title>
<polygon fill="white" stroke="transparent" points="-4,4 -4,-256 332.5,-256 332.5,4 -4,4"/>
<!-- 0 -->
<g id="node1" class="node">
<title>0</title>
<path fill="none" stroke="#d85656" stroke-width="2" d="M135,-36C135,-36 105,-36 105,-36 99,-36 93,-30 93,-24 93,-24 93,-12 93,-12 93,-6 99,0 105,0 105,0 135,0 135,0 141,0 147,-6 147,-12 147,-12 147,-24 147,-24 147,-30 141,-36 135,-36"/>
<text text-anchor="middle" x="120" y="-15.5" font-family="sans" font-size="10.00">all</text>
</g>
<!-- 1 -->
<g id="node2" class="node">
<title>1</title>
<path fill="none" stroke="#d8ac56" stroke-width="2" d="M42,-108C42,-108 12,-108 12,-108 6,-108 0,-102 0,-96 0,-96 0,-84 0,-84 0,-78 6,-72 12,-72 12,-72 42,-72 42,-72 48,-72 54,-78 54,-84 54,-84 54,-96 54,-96 54,-102 48,-108 42,-108"/>
<text text-anchor="middle" x="27" y="-87.5" font-family="sans" font-size="10.00">fastqc</text>
</g>
<!-- 1&#45;&gt;0 -->
<g id="edge1" class="edge">
<title>1&#45;&gt;0</title>
<path fill="none" stroke="grey" stroke-width="2" d="M49.99,-71.7C61.81,-62.8 76.39,-51.82 89.18,-42.2"/>
<polygon fill="grey" stroke="grey" stroke-width="2" points="91.39,-44.91 97.28,-36.1 87.18,-39.32 91.39,-44.91"/>
</g>
<!-- 2 -->
<g id="node3" class="node">
<title>2</title>
<path fill="none" stroke="#56a9d8" stroke-width="2" stroke-dasharray="5,2" d="M138.5,-252C138.5,-252 107.5,-252 107.5,-252 101.5,-252 95.5,-246 95.5,-240 95.5,-240 95.5,-228 95.5,-228 95.5,-222 101.5,-216 107.5,-216 107.5,-216 138.5,-216 138.5,-216 144.5,-216 150.5,-222 150.5,-228 150.5,-228 150.5,-240 150.5,-240 150.5,-246 144.5,-252 138.5,-252"/>
<text text-anchor="middle" x="123" y="-231.5" font-family="sans" font-size="10.00">trimming</text>
</g>
<!-- 2&#45;&gt;0 -->
<g id="edge2" class="edge">
<title>2&#45;&gt;0</title>
<path fill="none" stroke="grey" stroke-width="2" d="M122.76,-215.85C122.24,-178.83 121.01,-91.18 120.38,-46.39"/>
<polygon fill="grey" stroke="grey" stroke-width="2" points="123.88,-46.18 120.24,-36.23 116.88,-46.28 123.88,-46.18"/>
</g>
<!-- 4 -->
<g id="node5" class="node">
<title>4</title>
<path fill="none" stroke="#56d8a9" stroke-width="2" d="M182,-180C182,-180 148,-180 148,-180 142,-180 136,-174 136,-168 136,-168 136,-156 136,-156 136,-150 142,-144 148,-144 148,-144 182,-144 182,-144 188,-144 194,-150 194,-156 194,-156 194,-168 194,-168 194,-174 188,-180 182,-180"/>
<text text-anchor="middle" x="165" y="-159.5" font-family="sans" font-size="10.00">star_map</text>
</g>
<!-- 2&#45;&gt;4 -->
<g id="edge7" class="edge">
<title>2&#45;&gt;4</title>
<path fill="none" stroke="grey" stroke-width="2" d="M133.38,-215.7C138.26,-207.56 144.19,-197.69 149.58,-188.7"/>
<polygon fill="grey" stroke="grey" stroke-width="2" points="152.59,-190.48 154.74,-180.1 146.59,-186.88 152.59,-190.48"/>
</g>
<!-- 3 -->
<g id="node4" class="node">
<title>3</title>
<path fill="none" stroke="#59d856" stroke-width="2" d="M316.5,-252C316.5,-252 213.5,-252 213.5,-252 207.5,-252 201.5,-246 201.5,-240 201.5,-240 201.5,-228 201.5,-228 201.5,-222 207.5,-216 213.5,-216 213.5,-216 316.5,-216 316.5,-216 322.5,-216 328.5,-222 328.5,-228 328.5,-228 328.5,-240 328.5,-240 328.5,-246 322.5,-252 316.5,-252"/>
<text text-anchor="middle" x="265" y="-231.5" font-family="sans" font-size="10.00">generate_genome_index</text>
</g>
<!-- 3&#45;&gt;0 -->
<g id="edge3" class="edge">
<title>3&#45;&gt;0</title>
<path fill="none" stroke="grey" stroke-width="2" d="M273.2,-215.79C287,-184.06 310.42,-115.59 279,-72 251.4,-33.7 194.92,-22.66 157.25,-19.71"/>
<polygon fill="grey" stroke="grey" stroke-width="2" points="157.36,-16.21 147.16,-19.08 156.92,-23.2 157.36,-16.21"/>
</g>
<!-- 3&#45;&gt;4 -->
<g id="edge6" class="edge">
<title>3&#45;&gt;4</title>
<path fill="none" stroke="grey" stroke-width="2" d="M240.54,-215.88C227.7,-206.89 211.8,-195.76 197.91,-186.03"/>
<polygon fill="grey" stroke="grey" stroke-width="2" points="199.76,-183.06 189.56,-180.19 195.74,-188.79 199.76,-183.06"/>
</g>
<!-- 4&#45;&gt;0 -->
<g id="edge4" class="edge">
<title>4&#45;&gt;0</title>
<path fill="none" stroke="grey" stroke-width="2" d="M155.22,-143.8C149.79,-133.65 143.29,-120.4 139,-108 131.99,-87.75 127.08,-63.98 124,-46.1"/>
<polygon fill="grey" stroke="grey" stroke-width="2" points="127.43,-45.37 122.37,-36.07 120.52,-46.5 127.43,-45.37"/>
</g>
<!-- 5 -->
<g id="node6" class="node">
<title>5</title>
<path fill="none" stroke="#afd856" stroke-width="2" d="M258,-108C258,-108 160,-108 160,-108 154,-108 148,-102 148,-96 148,-96 148,-84 148,-84 148,-78 154,-72 160,-72 160,-72 258,-72 258,-72 264,-72 270,-78 270,-84 270,-84 270,-96 270,-96 270,-102 264,-108 258,-108"/>
<text text-anchor="middle" x="209" y="-87.5" font-family="sans" font-size="10.00">samtools_alignment_qc</text>
</g>
<!-- 4&#45;&gt;5 -->
<g id="edge8" class="edge">
<title>4&#45;&gt;5</title>
<path fill="none" stroke="grey" stroke-width="2" d="M175.88,-143.7C180.99,-135.56 187.2,-125.69 192.84,-116.7"/>
<polygon fill="grey" stroke="grey" stroke-width="2" points="195.89,-118.43 198.25,-108.1 189.96,-114.71 195.89,-118.43"/>
</g>
<!-- 5&#45;&gt;0 -->
<g id="edge5" class="edge">
<title>5&#45;&gt;0</title>
<path fill="none" stroke="grey" stroke-width="2" d="M187,-71.7C175.79,-62.88 162,-52.03 149.85,-42.47"/>
<polygon fill="grey" stroke="grey" stroke-width="2" points="151.77,-39.54 141.75,-36.1 147.44,-45.04 151.77,-39.54"/>
</g>
</g>
</svg>
